<svg width="31" height="18" viewBox="0 0 31 18" fill="none" xmlns="http://www.w3.org/2000/svg">
<path d="M12.3254 0.213017C9.14463 0.690128 5.77835 2.32026 3.33978 4.56003C1.9482 5.84558 0 8.42993 0 8.99982C0 9.59621 1.97471 12.2071 3.4193 13.5059C11.4772 20.7156 23.9616 19.0457 29.7664 9.96729C30.3098 9.11909 30.3231 8.89379 29.8592 8.16487C26.0158 2.17447 19.323 -0.860484 12.3254 0.213017ZM17.5338 1.64435C21.6556 2.26725 25.5652 4.67931 28.0303 8.12511L28.6532 8.99982L28.017 9.88777C27.6592 10.3914 26.864 11.2926 26.2411 11.9155C19.2833 18.8469 7.9121 17.8529 2.16025 9.82151L1.56387 8.99982L2.18676 8.12511C4.12171 5.42148 6.98438 3.31424 10.1916 2.24074C12.4579 1.48531 15.0555 1.27326 17.5338 1.64435Z" fill="#8C8C8C"/>
<path d="M13.3192 3.56661C9.78062 4.69313 8.29627 9.00038 10.3505 12.1811C12.4445 15.4149 17.3879 15.5474 19.6939 12.4197C21.5759 9.84858 21.006 6.12446 18.4216 4.32204C17.0036 3.34131 14.9891 3.03649 13.3192 3.56661ZM16.9108 5.15699C17.7325 5.55458 18.5409 6.37627 18.965 7.21122C19.4289 8.16544 19.4289 9.83533 18.965 10.7896C18.5409 11.6245 17.7325 12.4329 16.8975 12.857C16.3542 13.1221 16.0361 13.1751 15.1084 13.1751C14.1806 13.1751 13.8626 13.1221 13.3192 12.857C10.9601 11.6908 10.165 8.82809 11.5963 6.65459C12.0999 5.89916 12.9879 5.21 13.8361 4.94494C14.6445 4.67987 16.1156 4.7859 16.9108 5.15699Z" fill="#8C8C8C"/>
</svg>
