<svg width="54" height="54" viewBox="0 0 54 54" fill="none" xmlns="http://www.w3.org/2000/svg">
<rect width="53.8232" height="53.8232" rx="26.9116" fill="#0B0A0A"/>
<path d="M26.7358 15.6543L37.3987 21.8106V34.1231L26.7358 40.2793L16.0728 34.1231V21.8106L26.7358 15.6543Z" fill="white"/>
<path d="M25.7497 32.602C25.4851 32.602 25.1591 32.6115 24.7716 32.6304C24.3842 32.6398 23.9637 32.6445 23.5101 32.6445C23.2834 32.6445 23.0471 32.6398 22.8014 32.6304C22.5652 32.6209 22.3242 32.6162 22.0785 32.6162C21.8329 32.6067 21.5919 32.602 21.3557 32.602C21.11 32.602 20.8737 32.6067 20.647 32.6162C20.4296 32.6162 20.2265 32.6209 20.0375 32.6304C19.8485 32.6304 19.6878 32.6351 19.5555 32.6445L19.6264 32.361C19.9477 32.3421 20.1981 32.3044 20.3776 32.2477C20.5572 32.191 20.6942 32.0776 20.7887 31.9075C20.8926 31.7374 20.9919 31.4822 21.0864 31.1421L22.9715 24.1117C23.066 23.762 23.1038 23.5069 23.0849 23.3463C23.0755 23.1762 22.9951 23.0628 22.844 23.0061C22.7022 22.9399 22.4707 22.9021 22.1494 22.8927L22.2203 22.6092C22.4187 22.6187 22.6786 22.6281 22.9999 22.6376C23.3211 22.647 23.6661 22.6517 24.0346 22.6517C24.337 22.6517 24.6346 22.647 24.9276 22.6376C25.2299 22.6281 25.4851 22.6187 25.693 22.6092L25.6221 22.8927C25.3386 22.9021 25.1165 22.9399 24.9559 23.0061C24.7953 23.0628 24.6677 23.1762 24.5732 23.3463C24.4787 23.5069 24.3842 23.762 24.2897 24.1117L22.4046 31.1421C22.3101 31.4822 22.2675 31.7421 22.277 31.9216C22.2864 32.0917 22.3668 32.2099 22.5179 32.276C22.6691 32.3327 22.9054 32.361 23.2267 32.361H23.9921C24.3133 32.361 24.5638 32.3327 24.7433 32.276C24.9228 32.2099 25.0646 32.0917 25.1685 31.9216C25.2725 31.7421 25.3717 31.4822 25.4662 31.1421L27.3513 24.1117C27.4458 23.762 27.4884 23.5069 27.4789 23.3463C27.4789 23.1762 27.4128 23.0628 27.2805 23.0061C27.1576 22.9399 26.9545 22.9021 26.671 22.8927L26.7419 22.6092C26.9497 22.6187 27.2049 22.6281 27.5073 22.6376C27.8096 22.647 28.1073 22.6517 28.4002 22.6517C28.7404 22.6517 29.057 22.647 29.3499 22.6376C29.6523 22.6281 29.8933 22.6187 30.0728 22.6092L30.0019 22.8927C29.709 22.9021 29.4822 22.9399 29.3216 23.0061C29.1704 23.0628 29.0475 23.1762 28.953 23.3463C28.8585 23.5069 28.764 23.762 28.6695 24.1117L26.7844 31.1421C26.6899 31.4822 26.6474 31.7421 26.6568 31.9216C26.6663 32.0917 26.7466 32.2099 26.8978 32.276C27.049 32.3327 27.2852 32.361 27.6065 32.361H28.3719C28.6932 32.361 28.9436 32.3327 29.1231 32.276C29.3027 32.2099 29.4444 32.0917 29.5483 31.9216C29.6523 31.7421 29.7515 31.4822 29.846 31.1421L31.7312 24.1117C31.8257 23.762 31.8682 23.5069 31.8587 23.3463C31.8587 23.1762 31.7926 23.0628 31.6603 23.0061C31.5375 22.9399 31.3343 22.9021 31.0508 22.8927L31.1217 22.6092C31.3296 22.6187 31.5847 22.6281 31.8871 22.6376C32.1895 22.647 32.4871 22.6517 32.7801 22.6517C33.1486 22.6517 33.4935 22.647 33.8148 22.6376C34.1361 22.6281 34.3959 22.6187 34.5944 22.6092L34.5235 22.8927C34.2022 22.9021 33.9518 22.9399 33.7723 23.0061C33.5927 23.0628 33.451 23.1762 33.347 23.3463C33.2431 23.5069 33.1439 23.762 33.0494 24.1117L31.1642 31.1421C31.0697 31.4822 31.0272 31.7374 31.0366 31.9075C31.0555 32.0776 31.1406 32.191 31.2918 32.2477C31.443 32.3044 31.6745 32.3421 31.9863 32.361L31.9154 32.6445C31.7831 32.6351 31.6225 32.6304 31.4335 32.6304C31.2445 32.6209 31.0366 32.6162 30.8098 32.6162C30.5831 32.6067 30.3468 32.602 30.1011 32.602C29.8649 32.602 29.6192 32.6067 29.3641 32.6162C29.1089 32.6162 28.8585 32.6209 28.6128 32.6304C28.3766 32.6398 28.1498 32.6445 27.9325 32.6445C27.4884 32.6445 27.0773 32.6398 26.6993 32.6304C26.3308 32.6115 26.0142 32.602 25.7497 32.602Z" fill="black"/>
<path d="M52.7082 30.1563C53.4359 27.9779 53.0575 25.2329 52.6917 23.7855C52.6335 23.5551 52.4207 23.4023 52.1832 23.408L40.0432 23.695C39.7109 23.7029 39.4689 24.0126 39.5251 24.3402C39.8933 26.4878 39.7322 28.5992 39.5297 29.8367C39.4747 30.173 39.7286 30.4915 40.0694 30.4915H52.2282C52.4439 30.4915 52.6398 30.3609 52.7082 30.1563Z" fill="white"/>
<rect x="41.6686" y="24.8164" width="11.2932" height="4.4137" rx="0.527679" fill="white"/>
<path d="M42.001 27.0233C42.001 28.0498 42.8593 28.8976 43.9378 28.8976C45.0162 28.8976 45.8745 28.0498 45.8745 27.0233C45.8745 25.9967 45.0162 25.1489 43.9378 25.1489C42.8593 25.1489 42.001 25.9967 42.001 27.0233Z" stroke="white" stroke-width="0.664935"/>
<path d="M48.7559 27.0233C48.7559 28.0498 49.6142 28.8976 50.6926 28.8976C51.771 28.8976 52.6293 28.0498 52.6293 27.0233C52.6293 25.9967 51.771 25.1489 50.6926 25.1489C49.6142 25.1489 48.7559 25.9967 48.7559 27.0233Z" stroke="black" stroke-width="0.664935"/>
<path d="M41.9983 27.0233C41.9983 28.0498 42.8566 28.8976 43.935 28.8976C45.0134 28.8976 45.8718 28.0498 45.8718 27.0233C45.8718 25.9967 45.0134 25.1489 43.935 25.1489C42.8566 25.1489 41.9983 25.9967 41.9983 27.0233Z" stroke="black" stroke-width="0.664935"/>
<path d="M1.11795 30.1524C0.390223 27.974 0.768681 25.229 1.13442 23.7816C1.19264 23.5512 1.4054 23.3984 1.64298 23.404L13.7829 23.6911C14.1152 23.699 14.3572 24.0087 14.301 24.3363C13.9328 26.4839 14.0939 28.5953 14.2964 29.8328C14.3515 30.1691 14.0976 30.4876 13.7568 30.4876H1.59795C1.3822 30.4876 1.18632 30.357 1.11795 30.1524Z" fill="white"/>
<rect width="11.2932" height="4.4137" rx="0.527679" transform="matrix(-1 0 0 1 12.2918 24.709)" fill="white"/>
<path d="M11.9594 26.9158C11.9594 27.9424 11.1011 28.7902 10.0227 28.7902C8.94425 28.7902 8.08595 27.9424 8.08595 26.9158C8.08595 25.8893 8.94425 25.0415 10.0227 25.0415C11.1011 25.0415 11.9594 25.8893 11.9594 26.9158Z" stroke="white" stroke-width="0.664935"/>
<path d="M11.9581 26.9158C11.9581 27.9424 11.0998 28.7902 10.0214 28.7902C8.94297 28.7902 8.08466 27.9424 8.08466 26.9158C8.08466 25.8893 8.94297 25.0415 10.0214 25.0415C11.0998 25.0415 11.9581 25.8893 11.9581 26.9158Z" stroke="black" stroke-width="0.664935"/>
<path d="M5.20456 26.9158C5.20456 27.9424 4.34625 28.7902 3.26784 28.7902C2.18943 28.7902 1.33112 27.9424 1.33112 26.9158C1.33112 25.8893 2.18943 25.0415 3.26784 25.0415C4.34625 25.0415 5.20456 25.8893 5.20456 26.9158Z" stroke="black" stroke-width="0.664935"/>
</svg>
